#N canvas 0 89 1920 991 10;
#X obj 103 121 bng 15 250 50 0 empty empty - 17 7 0 10 -261682 -260097
-1;
#X obj 103 -60 f;
#X obj 103 -37 - 1;
#X obj 100 -16 t b f;
#X obj 103 9 +;
#X floatatom 133 121 5 0 0 1 pgm - -;
#X obj 103 139 bng 15 250 50 0 empty empty + 17 7 0 10 -261682 -260097
-1;
#X obj 149 -59 f;
#X obj 149 -36 + 1;
#X floatatom 183 -19 5 0 0 0 - - -;
#X floatatom 45 -21 5 0 0 0 - - -;
#X obj 103 32 mod 127;
#X obj 103 -155 sel 127;
#X obj 149 -107 sel 127;
#X msg 103 -132 bang;
#X msg 149 -84 bang;
#X obj 103 -180 ctlin 47 1;
#X obj 149 -132 ctlin 48 1;
#X text 31 -180 rewind btn;
#X text 220 -133 forward btn;
#X obj 133 161 pgmout;
#X text 126 140 to pgmout;
#X connect 1 0 2 0;
#X connect 2 0 3 0;
#X connect 2 0 10 0;
#X connect 2 0 1 1;
#X connect 3 0 4 0;
#X connect 3 1 4 1;
#X connect 4 0 11 0;
#X connect 5 0 20 0;
#X connect 7 0 8 0;
#X connect 8 0 9 0;
#X connect 8 0 4 0;
#X connect 8 0 7 1;
#X connect 11 0 5 0;
#X connect 12 0 14 0;
#X connect 13 0 15 0;
#X connect 14 0 0 0;
#X connect 14 0 1 0;
#X connect 15 0 6 0;
#X connect 15 0 7 0;
#X connect 16 0 12 0;
#X connect 17 0 13 0;
#X coords 0 -1 1 1 85 60 1 100 100;
